<?xml version="1.0" standalone="no"?>
<!DOCTYPE svg PUBLIC "-//W3C//DTD SVG 20010904//EN"
 "http://www.w3.org/TR/2001/REC-SVG-20010904/DTD/svg10.dtd">
<svg version="1.0" xmlns="http://www.w3.org/2000/svg"
 width="91.000000pt" height="105.000000pt" viewBox="0 0 91.000000 105.000000"
 preserveAspectRatio="xMidYMid meet">
<metadata>
Created by potrace 1.10, written by Peter Selinger 2001-2011
</metadata>
<g transform="translate(0.000000,105.000000) scale(0.100000,-0.100000)"
fill="#000000" stroke="none">
<path d="M441 1043 c-8 -3 -30 -16 -49 -29 -19 -13 -46 -24 -59 -24 -13 0 -22
-4 -19 -9 3 -5 -20 -22 -52 -37 -31 -16 -61 -34 -67 -40 -5 -7 -28 -20 -50
-30 -22 -10 -64 -34 -93 -53 l-52 -35 1 -276 c0 -151 4 -284 9 -295 5 -11 9
-17 9 -13 1 8 89 -36 151 -75 20 -12 61 -37 93 -55 31 -19 57 -37 57 -41 0
-10 62 -31 91 -31 15 0 -54 45 -187 121 l-210 122 -1 263 -1 263 112 65 c113
65 159 91 231 131 22 12 57 32 77 44 l38 23 63 -39 c34 -21 72 -43 82 -50 11
-7 43 -25 70 -41 133 -77 172 -100 198 -116 26 -18 27 -18 27 1 0 14 -21 29
-76 57 -42 21 -86 48 -98 59 -24 24 -29 27 -49 27 -7 0 -22 8 -33 18 -11 9
-44 30 -74 46 -30 16 -57 33 -60 38 -8 11 -62 19 -79 11z"/>
<path d="M410 948 c-30 -17 -121 -69 -203 -116 l-147 -85 -1 -191 c-2 -178 -1
-273 0 -287 1 -3 20 -16 43 -29 24 -13 115 -66 203 -118 l160 -95 35 20 c19
11 96 55 170 98 74 43 152 87 172 99 l37 21 -1 238 0 238 -31 16 c-17 8 -109
62 -203 119 -95 57 -174 104 -176 104 -2 0 -28 -14 -58 -32z m153 -50 c45 -29
84 -56 85 -60 2 -5 12 -8 21 -8 10 0 28 -9 41 -20 13 -11 29 -20 36 -20 7 0
20 -7 28 -16 9 -8 16 -13 16 -9 0 4 7 -1 15 -9 9 -9 22 -19 30 -23 15 -9 17
-44 16 -285 -1 -120 -4 -160 -15 -170 -39 -37 -95 -72 -103 -64 -3 3 -11 0
-18 -7 -25 -24 -98 -69 -201 -123 l-50 -26 -68 41 c-38 22 -71 41 -76 41 -4 0
-19 11 -34 25 -14 13 -26 22 -26 20 0 -3 -19 7 -42 21 -24 13 -58 32 -77 40
-19 9 -39 21 -45 27 -14 15 -19 229 -7 274 5 18 6 33 1 33 -9 0 -3 146 6 162
3 5 12 7 20 4 8 -3 13 -1 11 5 -1 6 30 28 68 49 39 20 115 63 170 94 55 31
104 56 108 56 4 0 45 -24 90 -52z"/>
<path d="M230 625 c-9 -11 -16 -12 -26 -4 -19 15 -49 3 -63 -27 -12 -28 -5
-49 28 -76 24 -21 18 -46 -12 -50 -28 -4 -34 -40 -11 -63 11 -11 24 -14 38
-10 35 12 80 13 94 2 8 -7 12 -5 12 6 0 25 -59 37 -91 18 -30 -17 -62 -8 -57
16 2 12 14 19 36 21 28 3 32 7 32 32 0 20 -6 31 -20 35 -29 9 -43 40 -30 65
15 28 50 26 50 -2 0 -17 -3 -19 -9 -9 -10 16 -31 6 -31 -14 0 -13 29 -35 44
-35 3 0 6 9 6 21 0 37 33 84 52 73 16 -10 8 -51 -17 -84 -24 -33 -34 -90 -16
-90 5 0 16 -2 24 -5 10 -5 13 1 9 25 -7 52 45 107 62 64 14 -36 6 -71 -19 -84
-19 -10 -22 -16 -14 -26 6 -8 8 -22 5 -31 -6 -14 -2 -13 17 5 13 12 30 22 39
22 9 0 21 7 29 16 11 13 14 13 21 0 7 -12 38 -14 172 -15 148 0 167 2 189 19
14 11 27 28 30 39 3 15 -5 10 -29 -16 -27 -29 -37 -33 -48 -24 -11 9 -19 9
-36 -1 -18 -11 -23 -10 -36 6 -15 21 -11 46 13 84 17 28 37 24 41 -7 l4 -23
14 21 c9 12 21 21 29 21 8 0 17 4 20 10 3 6 -10 10 -32 9 -21 0 -47 0 -58 0
-11 0 -41 -1 -67 -2 -44 -2 -47 0 -50 23 -4 34 -40 38 -64 7 -11 -14 -29 -23
-41 -22 -12 1 -20 -2 -18 -5 6 -9 -68 -5 -84 4 -6 4 -11 3 -11 -2 0 -5 -13 -7
-28 -4 -24 3 -28 8 -25 26 5 24 -19 56 -41 56 -8 0 -19 -7 -26 -15z m320 -51
c0 -14 -10 -43 -22 -64 -17 -30 -20 -42 -11 -51 8 -8 15 -5 27 15 9 14 23 38
32 52 12 20 18 23 30 13 11 -9 14 -9 14 0 0 7 4 10 9 7 6 -4 5 -21 -1 -42 -7
-26 -6 -39 2 -44 8 -5 7 -10 -4 -19 -11 -9 -15 -9 -18 1 -4 10 -8 10 -22 -1
-15 -12 -19 -13 -26 -1 -7 11 -12 11 -23 2 -12 -10 -18 -9 -31 4 -16 15 -18
15 -37 -2 -18 -16 -21 -16 -36 -1 -20 19 -8 73 19 91 22 14 36 -1 16 -17 -21
-16 -32 -54 -18 -62 14 -9 50 32 50 57 0 27 27 88 39 88 6 0 11 -11 11 -26z
m-130 -45 c0 -12 -4 -17 -11 -13 -7 4 -9 0 -5 -13 7 -22 -29 -77 -45 -68 -12
8 -10 64 2 90 7 14 8 7 4 -27 -2 -27 -1 -48 4 -48 11 0 21 25 21 54 0 18 16
46 27 46 2 0 3 -9 3 -21z m60 -29 c0 -5 -5 -10 -11 -10 -5 0 -7 5 -4 10 3 6 8
10 11 10 2 0 4 -4 4 -10z m-148 -82 c-7 -7 -12 -8 -12 -2 0 6 3 14 7 17 3 4 9
5 12 2 2 -3 -1 -11 -7 -17z"/>
<path d="M526 554 c-4 -9 -4 -19 -1 -22 2 -3 7 3 11 12 4 9 4 19 1 22 -2 3 -7
-3 -11 -12z"/>
<path d="M580 506 c-14 -37 -13 -59 3 -54 19 7 33 56 19 70 -8 8 -14 5 -22
-16z"/>
<path d="M252 593 c-7 -12 -12 -30 -12 -40 1 -13 5 -11 16 10 8 16 13 34 11
40 -2 7 -9 3 -15 -10z"/>
<path d="M770 520 c0 -11 -9 -25 -20 -32 -21 -13 -27 -38 -10 -38 12 0 50 59
50 78 0 6 -4 12 -10 12 -5 0 -10 -9 -10 -20z"/>
<path d="M308 525 c-9 -9 4 -55 13 -49 11 7 12 54 1 54 -5 0 -11 -2 -14 -5z"/>
<path d="M672 505 c-16 -34 -15 -55 2 -55 23 0 37 26 30 54 -8 33 -18 33 -32
1z"/>
<path d="M742 510 c-8 -13 -8 -20 -2 -20 6 0 13 7 17 15 9 24 -1 27 -15 5z"/>
<path d="M291 478 c-1 -16 4 -28 9 -28 12 0 12 8 0 35 -8 18 -9 17 -9 -7z"/>
<path d="M170 440 c-20 -12 -5 -24 16 -12 9 5 12 12 7 15 -5 3 -15 2 -23 -3z"/>
<path d="M762 149 c-73 -43 -162 -95 -199 -114 -60 -32 -63 -35 -34 -35 31 0
60 12 94 39 18 15 47 33 82 50 11 6 43 24 70 41 28 17 58 33 68 36 9 4 17 11
17 16 0 5 5 6 10 3 13 -8 40 13 40 31 0 8 -3 14 -7 13 -5 0 -68 -36 -141 -80z"/>
</g>
</svg>
